<svg width="20" height="20" fill="none" xmlns="http://www.w3.org/2000/svg"><path fill-rule="evenodd" clip-rule="evenodd" d="M1.875 4.375c0-.345.28-.625.625-.625h15c.345 0 .625.28.625.625V15a1.25 1.25 0 01-1.25 1.25H3.125A1.25 1.25 0 011.875 15V4.375zM3.125 5v10h13.75V5H3.125z" fill="#fff"/><path fill-rule="evenodd" clip-rule="evenodd" d="M2.04 3.953a.625.625 0 01.882-.039L10 10.402l7.078-6.488a.625.625 0 11.844.922l-7.5 6.875a.625.625 0 01-.844 0l-7.5-6.875a.625.625 0 01-.039-.883z" fill="#fff"/></svg>