<svg width="33" height="32" fill="none" xmlns="http://www.w3.org/2000/svg"><path d="M12.293 19.5a1.5 1.5 0 100-3 1.5 1.5 0 000 3zm8 0a1.5 1.5 0 100-3 1.5 1.5 0 000 3z" fill="#858584"/><path fill-rule="evenodd" clip-rule="evenodd" d="M16.286 10a20.863 20.863 0 00-6.394.955 1 1 0 11-.598-1.909 22.862 22.862 0 016.999-1.045 22.862 22.862 0 017 1.045 1 1 0 01-.599 1.909A20.863 20.863 0 0016.3 10h-.014zM8.639 21.701a1 1 0 011.253-.655c2.069.648 4.226.97 6.394.954h.014a20.862 20.862 0 006.394-.954 1 1 0 01.598 1.909A22.86 22.86 0 0116.293 24a22.86 22.86 0 01-6.999-1.046 1 1 0 01-.655-1.253z" fill="#858584"/><path fill-rule="evenodd" clip-rule="evenodd" d="M20.512 4.81a2.02 2.02 0 011.418-.213c1.318.286 2.608.686 3.855 1.197a1.963 1.963 0 011.18 1.286L31.2 21.225a2.012 2.012 0 01-.596 2.087l-.005.004c-2.068 1.8-4.869 3.16-8.05 3.94a1.974 1.974 0 01-2.266-1.053l-1.509-2.991a1 1 0 011.786-.9l1.513 3 .001.002c2.938-.72 5.432-1.958 7.212-3.507l.656.755-.661-.75a.012.012 0 00.004-.006v-.007L25.049 7.654l-.011-.005a21.051 21.051 0 00-3.532-1.097h-.003a.013.013 0 00-.014.006l-.985 2.98a1 1 0 11-1.899-.628l.99-2.996c.16-.468.487-.86.917-1.104zm-9.421 1.742a.013.013 0 00-.009 0h-.002a21.05 21.05 0 00-3.543 1.102L3.301 21.799v.007c0 .002.002.004.003.005 1.78 1.547 4.273 2.783 7.208 3.503l.001-.003 1.512-3a1 1 0 011.786.9l-1.508 2.992a1.976 1.976 0 01-2.265 1.054c-3.182-.78-5.984-2.142-8.051-3.94l-.005-.005a2.013 2.013 0 01-.597-2.087L5.621 7.08a1.962 1.962 0 011.18-1.286 23.05 23.05 0 013.856-1.197 2.013 2.013 0 012.333 1.317l.003.009.987 2.987a1 1 0 11-1.899.628l-.984-2.98a.012.012 0 00-.006-.006z" fill="#858584"/><path d="M12.293 19.5a1.5 1.5 0 100-3 1.5 1.5 0 000 3zm8 0a1.5 1.5 0 100-3 1.5 1.5 0 000 3z" fill="#858584"/><path fill-rule="evenodd" clip-rule="evenodd" d="M16.286 10a20.863 20.863 0 00-6.394.955 1 1 0 11-.598-1.909 22.862 22.862 0 016.999-1.045 22.862 22.862 0 017 1.045 1 1 0 01-.599 1.909A20.863 20.863 0 0016.3 10h-.014zM8.639 21.701a1 1 0 011.253-.655c2.069.648 4.226.97 6.394.954h.014a20.862 20.862 0 006.394-.954 1 1 0 01.598 1.909A22.86 22.86 0 0116.293 24a22.86 22.86 0 01-6.999-1.046 1 1 0 01-.655-1.253z" fill="#858584"/><path fill-rule="evenodd" clip-rule="evenodd" d="M20.512 4.81a2.02 2.02 0 011.418-.213c1.318.286 2.608.686 3.855 1.197a1.963 1.963 0 011.18 1.286L31.2 21.225a2.012 2.012 0 01-.596 2.087l-.005.004c-2.068 1.8-4.869 3.16-8.05 3.94a1.974 1.974 0 01-2.266-1.053l-1.509-2.991a1 1 0 011.786-.9l1.513 3 .001.002c2.938-.72 5.432-1.958 7.212-3.507l.656.755-.661-.75a.012.012 0 00.004-.006v-.007L25.049 7.654l-.011-.005a21.051 21.051 0 00-3.532-1.097h-.003a.013.013 0 00-.014.006l-.985 2.98a1 1 0 11-1.899-.628l.99-2.996c.16-.468.487-.86.917-1.104zm-9.421 1.742a.013.013 0 00-.009 0h-.002a21.05 21.05 0 00-3.543 1.102L3.301 21.799v.007c0 .002.002.004.003.005 1.78 1.547 4.273 2.783 7.208 3.503l.001-.003 1.512-3a1 1 0 011.786.9l-1.508 2.992a1.976 1.976 0 01-2.265 1.054c-3.182-.78-5.984-2.142-8.051-3.94l-.005-.005a2.013 2.013 0 01-.597-2.087L5.621 7.08a1.962 1.962 0 011.18-1.286 23.05 23.05 0 013.856-1.197 2.013 2.013 0 012.333 1.317l.003.009.987 2.987a1 1 0 11-1.899.628l-.984-2.98a.012.012 0 00-.006-.006z" fill="#858584"/></svg>