<svg width="250" height="250" fill="none" xmlns="http://www.w3.org/2000/svg"><g clip-path="url(#clip0_69_5902)"><path d="M125.001 229.167c57.53 0 104.166-46.636 104.166-104.166 0-57.53-46.636-104.167-104.166-104.167-57.53 0-104.167 46.637-104.167 104.167s46.637 104.166 104.167 104.166z" fill="url(#paint0_linear_69_5902)"/><g filter="url(#filter0_f_69_5902)"><path d="M131.34 201.087c38.52 0 69.747-31.227 69.747-69.747 0-38.52-31.227-69.746-69.747-69.746-38.52 0-69.746 31.226-69.746 69.746 0 38.52 31.226 69.747 69.746 69.747z" fill="url(#paint1_linear_69_5902)"/></g><path fill-rule="evenodd" clip-rule="evenodd" d="M56.247 82.047a3.156 3.156 0 100-6.311 3.156 3.156 0 000 6.31zm0 2.366a5.522 5.522 0 100-11.044 5.522 5.522 0 000 11.044zm-9.963 95.46a3.156 3.156 0 100-6.311 3.156 3.156 0 000 6.311zm0 2.367a5.523 5.523 0 10-.001-11.046 5.523 5.523 0 000 11.046zM193.022 46.72a3.156 3.156 0 100-6.312 3.156 3.156 0 000 6.313zm0 2.367a5.522 5.522 0 100-11.044 5.522 5.522 0 000 11.044z" fill="#fff"/><path d="M59.23 38.215c.232-.961 1.6-.961 1.832 0l.781 3.236a.942.942 0 00.695.695l3.236.781c.961.232.961 1.6 0 1.832l-3.236.781a.942.942 0 00-.695.695l-.781 3.236c-.232.962-1.6.962-1.832 0l-.781-3.236a.942.942 0 00-.695-.695l-3.236-.78c-.962-.233-.962-1.6 0-1.833l3.236-.78a.943.943 0 00.695-.696l.781-3.236z" fill="#fff"/><path d="M204.977 71.187c.254-1.054 1.753-1.054 2.008 0l.856 3.547c.091.377.385.67.761.762l3.547.856c1.055.254 1.055 1.753 0 2.008l-3.547.856c-.376.091-.67.385-.761.762l-.856 3.547c-.255 1.054-1.754 1.054-2.008 0l-.857-3.547a1.031 1.031 0 00-.761-.762l-3.547-.856c-1.054-.255-1.054-1.754 0-2.008l3.547-.856c.376-.091.671-.385.761-.762l.857-3.547z" fill="url(#paint2_linear_69_5902)"/><path d="M49.847 200.396a1.577 1.577 0 011.723 2.12l-2.925 7.659a1.577 1.577 0 01-2.698.432l-5.17-6.363a1.577 1.577 0 01.975-2.552l8.095-1.296z" fill="url(#paint3_linear_69_5902)"/><path d="M191.103 182.978a1.578 1.578 0 011.956-1.91l7.893 2.219a1.577 1.577 0 01.675 2.647l-5.867 5.727a1.578 1.578 0 01-2.631-.74l-2.026-7.943z" fill="url(#paint4_linear_69_5902)"/><g filter="url(#filter1_f_69_5902)"><path d="M180.276 205.132c0 5.589-26.511 10.119-59.214 10.119s-59.214-4.53-59.214-10.119c0-5.588 26.51-10.118 59.214-10.118 32.703 0 59.214 4.53 59.214 10.118z" fill="url(#paint5_radial_69_5902)"/></g><g filter="url(#filter2_i_69_5902)"><path d="M122.215 59.865l-38.567 6.8a5.697 5.697 0 00-4.621 6.6l9.72 55.126a5.696 5.696 0 006.6 4.62l38.567-6.8a5.696 5.696 0 004.621-6.599l-9.72-55.126a5.698 5.698 0 00-6.6-4.621z" fill="url(#paint6_linear_69_5902)"/></g><path d="M122.772 88.202l-29.96 5.283a1.855 1.855 0 00-1.504 2.149v.006a1.855 1.855 0 002.15 1.504l29.96-5.282a1.856 1.856 0 001.505-2.15l-.001-.005a1.857 1.857 0 00-2.15-1.505z" fill="url(#paint7_linear_69_5902)"/><path d="M127.33 113.947l-29.703 5.237c-1 .177-1.67 1.112-1.498 2.089v.006c.173.978 1.123 1.627 2.124 1.451l29.702-5.238c1.001-.176 1.671-1.111 1.499-2.089l-.001-.006c-.172-.977-1.123-1.627-2.123-1.45z" fill="url(#paint8_linear_69_5902)"/><path d="M124.955 100.476l-29.703 5.237c-1 .177-1.67 1.112-1.498 2.089v.007c.173.977 1.123 1.626 2.124 1.45l29.702-5.238c1-.176 1.672-1.111 1.499-2.089v-.005c-.173-.978-1.124-1.627-2.124-1.451z" fill="url(#paint9_linear_69_5902)"/><path d="M100.405 72.488l-8.755 1.544a3.566 3.566 0 00-2.892 4.13l.428 2.43a3.566 3.566 0 004.131 2.893l8.755-1.544a3.565 3.565 0 002.892-4.13l-.428-2.43a3.566 3.566 0 00-4.131-2.893z" fill="#A259FF"/><g filter="url(#filter3_i_69_5902)"><path d="M168.178 75.066h-51.027a4.305 4.305 0 00-4.305 4.306v23.984a4.305 4.305 0 004.305 4.306h51.027a4.305 4.305 0 004.305-4.306V79.372a4.305 4.305 0 00-4.305-4.306z" fill="url(#paint10_linear_69_5902)"/></g><path d="M125.44 96.31a4.95 4.95 0 100-9.901 4.95 4.95 0 000 9.9zm17.688 0a4.949 4.949 0 004.949-4.95 4.949 4.949 0 10-9.899 0 4.95 4.95 0 004.95 4.95zm17.689 0a4.95 4.95 0 100-9.9 4.95 4.95 0 000 9.9z" fill="#fff"/><path fill-rule="evenodd" clip-rule="evenodd" d="M116.138 161.244a4.46 4.46 0 015.167-3.619l25.489 4.495c3.482.614 6.63 2.231 8.861 4.568 2.23 2.335 3.741 5.654 3.093 9.33-.648 3.676-3.203 6.279-6.097 7.712-2.895 1.434-6.407 1.88-9.891 1.266l-60.563-10.68a4.46 4.46 0 111.549-8.786l60.564 10.679c1.806.318 3.361.032 4.382-.473 1.022-.507 1.232-1.048 1.27-1.267.038-.217.027-.796-.759-1.62-.786-.824-2.15-1.624-3.958-1.943l-25.594-5.403c-2.425-.428-3.942-1.834-3.513-4.259z" fill="url(#paint11_linear_69_5902)"/><path fill-rule="evenodd" clip-rule="evenodd" d="M165.371 115.831a5.015 5.015 0 015.417-2.823l19.982 3.524a5.016 5.016 0 11-1.742 9.88l-16.189-2.855-9.563 20.528a5.016 5.016 0 11-9.094-4.236l11.189-24.018z" fill="url(#paint12_linear_69_5902)"/><path d="M94.148 192.088c5.911 1.042 11.548-2.905 12.59-8.816 1.042-5.911-2.905-11.547-8.816-12.589-5.91-1.043-11.547 2.905-12.59 8.815-1.041 5.911 2.906 11.547 8.816 12.59z" fill="url(#paint13_linear_69_5902)"/><path d="M160.76 124.901l-73.753-13.005c-5.529-.975-10.44 2.995-10.054 8.12l.92 29.914c.28 3.703 3.302 6.827 7.295 7.531l64.289 15.675 17.989-37.149c4.145-7.524-1.144-10.109-6.686-11.086z" fill="url(#paint14_linear_69_5902)"/><path d="M94.788 186.726a5.46 5.46 0 101.897-10.753 5.46 5.46 0 00-1.897 10.753z" fill="url(#paint15_linear_69_5902)"/><mask id="a" style="mask-type:alpha" maskUnits="userSpaceOnUse" x="76" y="111" width="93" height="63"><path d="M160.76 124.901l-73.753-13.005c-5.529-.975-10.44 2.995-10.054 8.12l.92 29.914c.28 3.703 3.302 6.827 7.295 7.531l64.289 15.675 17.989-37.149c2.117-4.699-1.144-10.109-6.686-11.086z" fill="url(#paint16_linear_69_5902)"/></mask><g mask="url(#a)"><path d="M125.077 144.626a3.135 3.135 0 013.648-2.499 3.105 3.105 0 012.488 3.633l-4.222 22.33a3.134 3.134 0 01-3.646 2.499 3.105 3.105 0 01-2.489-3.633l4.221-22.33zm55.097-14.525a2.615 2.615 0 012.127 3.009l-.174 1.025a2.588 2.588 0 01-2.996 2.119L76.008 118.343a2.613 2.613 0 01-2.127-3.008l.174-1.025a2.588 2.588 0 012.996-2.119l103.123 17.91zm-37.743 17.661a3.134 3.134 0 013.647-2.498 3.104 3.104 0 012.488 3.633l-4.221 22.33a3.136 3.136 0 01-3.648 2.499 3.105 3.105 0 01-2.488-3.633l4.222-22.331zm-34.707-6.273a3.135 3.135 0 013.647-2.499 3.104 3.104 0 012.488 3.633l-4.221 22.331a3.137 3.137 0 01-3.648 2.499 3.106 3.106 0 01-2.488-3.633l4.222-22.331zm-17.554-3.096a3.137 3.137 0 013.648-2.499 3.105 3.105 0 012.488 3.633l-4.22 22.331a3.136 3.136 0 01-3.648 2.499 3.105 3.105 0 01-2.489-3.633l4.222-22.331z" fill="#A259FF"/><path d="M74.929 112.21a3.38 3.38 0 013.915-2.742l90.127 15.891a3.38 3.38 0 01-1.174 6.658l-90.126-15.892a3.38 3.38 0 01-2.742-3.915z" fill="url(#paint17_linear_69_5902)"/></g></g><defs><linearGradient id="paint0_linear_69_5902" x1="49.895" y1="20.834" x2="208.898" y2="53.933" gradientUnits="userSpaceOnUse"><stop stop-color="#A259FF"/><stop offset="1" stop-color="#3B3B3B"/></linearGradient><linearGradient id="paint1_linear_69_5902" x1="161.231" y1="187.801" x2="114.714" y2="182.499" gradientUnits="userSpaceOnUse"><stop stop-color="#A259FF" stop-opacity="0"/><stop offset="1" stop-color="#FF6250"/></linearGradient><linearGradient id="paint2_linear_69_5902" x1="208.957" y1="73.49" x2="222.299" y2="83.969" gradientUnits="userSpaceOnUse"><stop stop-color="#A259FF"/><stop offset="1" stop-color="#377DF7"/></linearGradient><linearGradient id="paint3_linear_69_5902" x1="51.084" y1="204.28" x2="50.638" y2="217.555" gradientUnits="userSpaceOnUse"><stop stop-color="#A259FF"/><stop offset="1" stop-color="#377DF7"/></linearGradient><linearGradient id="paint4_linear_69_5902" x1="194.86" y1="181.393" x2="208.12" y2="180.633" gradientUnits="userSpaceOnUse"><stop stop-color="#A259FF"/><stop offset="1" stop-color="#377DF7"/></linearGradient><linearGradient id="paint6_linear_69_5902" x1="86.099" y1="66.233" x2="136.258" y2="64.687" gradientUnits="userSpaceOnUse"><stop stop-color="#A259FF"/><stop offset="1" stop-color="#3B3B3B"/></linearGradient><linearGradient id="paint7_linear_69_5902" x1="118.27" y1="91.702" x2="114.978" y2="81.942" gradientUnits="userSpaceOnUse"><stop stop-color="#A259FF"/><stop offset=".667" stop-color="#fff"/></linearGradient><linearGradient id="paint8_linear_69_5902" x1="122.856" y1="117.357" x2="119.697" y2="107.886" gradientUnits="userSpaceOnUse"><stop stop-color="#A259FF"/><stop offset=".667" stop-color="#fff"/></linearGradient><linearGradient id="paint9_linear_69_5902" x1="120.481" y1="103.886" x2="117.321" y2="94.415" gradientUnits="userSpaceOnUse"><stop stop-color="#A259FF"/><stop offset=".667" stop-color="#fff"/></linearGradient><linearGradient id="paint10_linear_69_5902" x1="112.846" y1="114.984" x2="149.544" y2="59.906" gradientUnits="userSpaceOnUse"><stop stop-color="#A259FF"/><stop offset="1" stop-color="#FF6250"/></linearGradient><linearGradient id="paint11_linear_69_5902" x1="141.924" y1="178.175" x2="129.343" y2="119.126" gradientUnits="userSpaceOnUse"><stop stop-color="#A259FF"/><stop offset=".667" stop-color="#fff"/></linearGradient><linearGradient id="paint12_linear_69_5902" x1="183.859" y1="123.353" x2="212.9" y2="157.155" gradientUnits="userSpaceOnUse"><stop stop-color="#A259FF"/><stop offset="1" stop-color="#377DF7"/></linearGradient><linearGradient id="paint13_linear_69_5902" x1="101.593" y1="187.156" x2="76.77" y2="161.794" gradientUnits="userSpaceOnUse"><stop stop-color="#A259FF"/><stop offset=".667" stop-color="#fff"/></linearGradient><linearGradient id="paint14_linear_69_5902" x1="145.221" y1="158.18" x2="95.324" y2="58.704" gradientUnits="userSpaceOnUse"><stop stop-color="#A259FF"/><stop offset=".667" stop-color="#fff"/></linearGradient><linearGradient id="paint15_linear_69_5902" x1="89.563" y1="183.031" x2="105.055" y2="186.017" gradientUnits="userSpaceOnUse"><stop stop-color="#fff"/><stop offset="1" stop-color="#BCF3FF"/></linearGradient><linearGradient id="paint16_linear_69_5902" x1="76.305" y1="121.766" x2="167.648" y2="139" gradientUnits="userSpaceOnUse"><stop stop-color="#AFF1FF"/><stop offset="1" stop-color="#65C8DE"/></linearGradient><linearGradient id="paint17_linear_69_5902" x1="151.901" y1="127.272" x2="153.387" y2="108.464" gradientUnits="userSpaceOnUse"><stop stop-color="#A259FF"/><stop offset=".667" stop-color="#fff"/></linearGradient><filter id="filter0_f_69_5902" x="7.594" y="7.594" width="247.492" height="247.492" filterUnits="userSpaceOnUse" color-interpolation-filters="sRGB"><feFlood flood-opacity="0" result="BackgroundImageFix"/><feBlend in="SourceGraphic" in2="BackgroundImageFix" result="shape"/><feGaussianBlur stdDeviation="27" result="effect1_foregroundBlur_69_5902"/></filter><filter id="filter1_f_69_5902" x="41.16" y="174.326" width="159.803" height="61.611" filterUnits="userSpaceOnUse" color-interpolation-filters="sRGB"><feFlood flood-opacity="0" result="BackgroundImageFix"/><feBlend in="SourceGraphic" in2="BackgroundImageFix" result="shape"/><feGaussianBlur stdDeviation="10.344" result="effect1_foregroundBlur_69_5902"/></filter><filter id="filter2_i_69_5902" x="78.939" y="59.777" width="62.068" height="78.886" filterUnits="userSpaceOnUse" color-interpolation-filters="sRGB"><feFlood flood-opacity="0" result="BackgroundImageFix"/><feBlend in="SourceGraphic" in2="BackgroundImageFix" result="shape"/><feColorMatrix in="SourceAlpha" values="0 0 0 0 0 0 0 0 0 0 0 0 0 0 0 0 0 0 127 0" result="hardAlpha"/><feOffset dx="2.385" dy="5.564"/><feGaussianBlur stdDeviation="5.961"/><feComposite in2="hardAlpha" operator="arithmetic" k2="-1" k3="1"/><feColorMatrix values="0 0 0 0 0.104618 0 0 0 0 0.465612 0 0 0 0 0.545833 0 0 0 0.15 0"/><feBlend in2="shape" result="effect1_innerShadow_69_5902"/></filter><filter id="filter3_i_69_5902" x="112.846" y="75.066" width="65.263" height="36.346" filterUnits="userSpaceOnUse" color-interpolation-filters="sRGB"><feFlood flood-opacity="0" result="BackgroundImageFix"/><feBlend in="SourceGraphic" in2="BackgroundImageFix" result="shape"/><feColorMatrix in="SourceAlpha" values="0 0 0 0 0 0 0 0 0 0 0 0 0 0 0 0 0 0 127 0" result="hardAlpha"/><feOffset dx="5.626" dy="3.751"/><feGaussianBlur stdDeviation="6.095"/><feComposite in2="hardAlpha" operator="arithmetic" k2="-1" k3="1"/><feColorMatrix values="0 0 0 0 0.104618 0 0 0 0 0.465612 0 0 0 0 0.545833 0 0 0 0.09 0"/><feBlend in2="shape" result="effect1_innerShadow_69_5902"/></filter><radialGradient id="paint5_radial_69_5902" cx="0" cy="0" r="1" gradientUnits="userSpaceOnUse" gradientTransform="matrix(0 10.1188 -59.2142 0 121.062 205.132)"><stop stop-color="#2B2B2B"/><stop offset="1" stop-color="#2B2B2B" stop-opacity="0"/></radialGradient><clipPath id="clip0_69_5902"><path fill="#fff" d="M0 0h250v250H0z"/></clipPath></defs></svg>