<svg width="250" height="250" fill="none" xmlns="http://www.w3.org/2000/svg"><g clip-path="url(#clip0_69_5827)"><path d="M125 229.167c57.53 0 104.166-46.636 104.166-104.166 0-57.53-46.636-104.167-104.166-104.167-57.53 0-104.167 46.637-104.167 104.167S67.47 229.167 125 229.167z" fill="url(#paint0_linear_69_5827)"/><g filter="url(#filter0_f_69_5827)"><path d="M125 201.086c42.022 0 76.087-34.065 76.087-76.087 0-42.022-34.065-76.087-76.087-76.087-42.022 0-76.087 34.065-76.087 76.087 0 42.022 34.065 76.087 76.087 76.087z" fill="url(#paint1_linear_69_5827)"/></g><path fill-rule="evenodd" clip-rule="evenodd" d="M117.84 40.38a3.156 3.156 0 100-6.31 3.156 3.156 0 000 6.31zm0 2.367a5.523 5.523 0 100-11.045 5.523 5.523 0 000 11.045zM42.66 185.308a3.156 3.156 0 100-6.311 3.156 3.156 0 000 6.311zm0 2.367a5.523 5.523 0 10-.001-11.045 5.523 5.523 0 000 11.045zm173.008-9.613a3.156 3.156 0 100-6.312 3.156 3.156 0 000 6.312zm0 2.367a5.522 5.522 0 10.001-11.043 5.522 5.522 0 00-.001 11.043z" fill="#fff"/><path d="M66.477 54.518c.232-.962 1.6-.962 1.832 0l.781 3.236a.942.942 0 00.695.695l3.236.781c.962.232.962 1.6 0 1.832l-3.236.781a.942.942 0 00-.695.695l-.781 3.236c-.232.961-1.6.961-1.832 0l-.781-3.236a.942.942 0 00-.695-.695l-3.236-.781c-.961-.232-.961-1.6 0-1.832l3.236-.781a.942.942 0 00.695-.695l.781-3.236z" fill="#fff"/><path d="M200.45 196.187c.254-1.054 1.753-1.054 2.008 0l.856 3.547c.09.376.385.671.762.761l3.547.857c1.053.254 1.053 1.753 0 2.008l-3.547.856a1.032 1.032 0 00-.762.761l-.856 3.547c-.255 1.055-1.754 1.055-2.008 0l-.857-3.547a1.033 1.033 0 00-.761-.761l-3.547-.856c-1.054-.255-1.054-1.754 0-2.008l3.547-.857c.376-.09.67-.385.761-.761l.857-3.547z" fill="url(#paint2_linear_69_5827)"/><path d="M51.658 209.454a1.578 1.578 0 011.724 2.121l-2.925 7.658a1.577 1.577 0 01-2.698.432l-5.17-6.362c-.767-.942-.225-2.36.974-2.553l8.095-1.296z" fill="url(#paint3_linear_69_5827)"/><path d="M205.598 62.506a1.578 1.578 0 011.956-1.908l7.893 2.218a1.578 1.578 0 01.675 2.648l-5.867 5.726a1.578 1.578 0 01-2.631-.74l-2.026-7.944z" fill="url(#paint4_linear_69_5827)"/><path d="M179.318 117.491l-17.113 3.327a8.981 8.981 0 003.426 17.631l17.114-3.327a8.98 8.98 0 007.102-10.529 8.98 8.98 0 00-10.529-7.102z" fill="url(#paint5_linear_69_5827)"/><path d="M186.043 126.272a4.016 4.016 0 10-8.027-.312 4.017 4.017 0 108.027.312z" fill="#EBEBEB"/><path d="M182.447 128.273a2.2 2.2 0 10-.84-4.317 2.2 2.2 0 00.84 4.317z" fill="#DBDBDB"/><path d="M152.184 90.444l-87.382 16.985a9.058 9.058 0 00-7.163 10.62l11.806 60.737a9.057 9.057 0 0010.62 7.163l87.381-16.985a9.058 9.058 0 007.164-10.62l-11.807-60.737a9.057 9.057 0 00-10.619-7.163z" fill="url(#paint6_linear_69_5827)"/><path d="M150.587 62.825l17.849 46.137a5.009 5.009 0 01-2.859 6.477l-73.173 28.309a5.009 5.009 0 01-6.475-2.865L68.08 94.745a4.656 4.656 0 012.665-6.024l73.815-28.555a4.657 4.657 0 016.025 2.665l.002-.006z" fill="url(#paint7_linear_69_5827)"/><path d="M154.024 107.061a4.604 4.604 0 11-8.588 3.322 4.604 4.604 0 018.588-3.322z" fill="url(#paint8_linear_69_5827)"/><path d="M159.311 105.012a4.606 4.606 0 01-2.633 5.956 4.606 4.606 0 112.633-5.956z" fill="url(#paint9_linear_69_5827)"/><path d="M90.135 90.326l-11.989 4.638a1.877 1.877 0 00-1.073 2.427l2.788 7.205a1.876 1.876 0 002.427 1.073l11.988-4.638a1.875 1.875 0 001.073-2.427L92.562 91.4a1.877 1.877 0 00-2.427-1.074z" fill="url(#paint10_linear_69_5827)"/><path d="M144.7 75.962l-7.01 2.71a3.15 3.15 0 01-4.07-1.802 3.151 3.151 0 011.802-4.07l7.009-2.71a3.148 3.148 0 012.269 5.872z" fill="#fff"/><path d="M83.742 116.318l-.49.619s-.04.044-.07.055a.17.17 0 01-.162-.023c-.078-.066-.088-.168-.023-.236l.664-.862c.056-.065.17-.08.235-.024a.21.21 0 01.066.109l1.597 4.125a.163.163 0 01-.094.214.168.168 0 01-.214-.095l-1.5-3.885-.01.003zm2.866 3.218l1.364-2.707c.16-.33.176-.689.052-1.011a1.237 1.237 0 00-.6-.655 1.218 1.218 0 00-1-.047c-.283.11-.522.311-.67.598l-.14.284c-.039.086-.145.122-.219.078-.086-.039-.122-.144-.079-.218l.139-.288a1.62 1.62 0 01.851-.762 1.523 1.523 0 011.264.065c.372.183.632.485.765.831a1.59 1.59 0 01-.06 1.277l-1.168 2.32 2.127-.817a.16.16 0 01.214.095.169.169 0 01-.095.214l-2.504.97-.025.01c-.046.018-.097.023-.134-.001-.086-.049-.123-.145-.084-.231l.002-.005zm4.985-6.452l-.699 1.642c.305-.05.628-.021.928.113.41.182.71.517.86.909.151.392.156.84-.03 1.252-.183.41-.516.714-.907.869a1.614 1.614 0 01-1.243-.035.166.166 0 01-.086-.225c.033-.09.133-.128.225-.087a1.308 1.308 0 001.705-.658c.146-.33.14-.681.022-.99a1.253 1.253 0 00-.68-.711 1.27 1.27 0 00-.985-.024.184.184 0 01-.154-.013l-.008.004a.168.168 0 01-.088-.23l.672-1.579-1.723.661a.163.163 0 01-.222-.091.171.171 0 01.096-.224l2.103-.807a.165.165 0 01.221.092c.01.025.011.054.007.079a.147.147 0 01-.015.063l.001-.01zm5.042 1.827l-2.432.942-.021.009c-.034.012-.074.019-.109.003a.156.156 0 01-.104-.209l1.349-4.241.004-.012a.157.157 0 01.21-.104c.032.012.057.036.079.056.004.013.016.017.018.022l.008.021 1.19 3.08.302-.116a.17.17 0 01.221.092.17.17 0 01-.1.215l-.299.116.296.771a.168.168 0 01-.313.12l-.296-.772-.003.007zm-.118-.309l-1.019-2.629-1.105 3.454 2.127-.817-.003-.008zm5.932-1.389a.164.164 0 01-.086-.226.172.172 0 01.229-.088c.326.139.676.139.984.02.309-.118.564-.35.711-.679.147-.33.142-.678.024-.985a1.283 1.283 0 00-.679-.721 1.301 1.301 0 00-1.703.663.17.17 0 01-.225.087.086.086 0 01-.056-.037l-.004-.008s-.013-.009-.016-.017c-.013-.01-.021-.031-.028-.047-.003-.008-.004-.023-.009-.036l-.483-1.895a.15.15 0 01.018-.141.158.158 0 01.089-.078l2.095-.803a.165.165 0 01.222.091.17.17 0 01-.096.224l-1.961.753.356 1.404a1.58 1.58 0 01.684-.502c.393-.15.829-.16 1.246.029.418.179.707.508.861.909.147.384.163.837-.028 1.25a1.664 1.664 0 01-.908.861c-.393.15-.841.155-1.25-.027l.013-.001zm3.093-4.721c.1-.665.461-1.268 1.197-1.584.08-.04.178.003.219.084a.177.177 0 01-.091.225c-.62.268-.891.745-.996 1.321-.054.322-.032.678.029 1.023a1.589 1.589 0 112.062 2.031 1.592 1.592 0 01-2.038-.858 2.591 2.591 0 01-.126-.292c-.224-.598-.355-1.3-.251-1.952l-.005.002zm.686 2.096c.012.033.031.055.044.079.008.02.013.033.009.049a1.261 1.261 0 002.284-1.058 1.26 1.26 0 00-2.351.907l.009.025.005-.002zm4.772-.42l.136-4.584-2.174.834a.158.158 0 01-.21-.087.168.168 0 01.095-.214l2.377-.913a.137.137 0 01.096-.036.2.2 0 01.153.109.157.157 0 01.006.093l-.14 4.806a.17.17 0 01-.106.15.117.117 0 01-.067.012.183.183 0 01-.171-.169l.005-.001zm2.782-5.994a1.006 1.006 0 011.296.57c.119.313.07.643-.092.906a1.563 1.563 0 11-1.113.432 1.011 1.011 0 01-.665-.611.996.996 0 01.572-1.292l.002-.005zm1.62 4.183c.642-.246.949-.958.706-1.592a1.229 1.229 0 00-1.593-.704 1.233 1.233 0 00-.704 1.591c.244.638.957.949 1.591.705zm-1.013-2.616a.692.692 0 00.385-.88.67.67 0 00-1.25.484c.133.346.52.523.868.394l-.003.002zm7.377-4.655a1.581 1.581 0 011.982.737c.013.01.016.018.025.029.055.118.109.245.16.378.229.597.358 1.308.263 1.958-.104.652-.469 1.271-1.196 1.583l-.009.004c-.091.035-.186 0-.219-.083a.175.175 0 01.091-.227c.61-.268.9-.747.996-1.321.05-.329.04-.68-.029-1.022a1.58 1.58 0 01-.927.926 1.586 1.586 0 11-1.145-2.959l.008-.003zm1.745 1.019a1.25 1.25 0 00-1.625-.706 1.253 1.253 0 00-.721 1.612 1.25 1.25 0 001.62.718c.655-.251.978-.969.722-1.623l.004-.001zm1.757.21c-.232-.604-.293-1.213-.179-1.74.121-.505.408-.93.862-1.106.455-.175.957-.051 1.384.24.432.313.81.799 1.047 1.402.231.605.28 1.218.167 1.735-.119.51-.405.94-.859 1.115-.455.174-.957.051-1.387-.248-.432-.303-.804-.796-1.036-1.401l.001.003zm.313-.119c.212.55.552.989.919 1.245.364.253.748.331 1.07.207.321-.124.544-.439.651-.872.096-.434.06-.99-.151-1.54-.211-.551-.561-.987-.923-1.245-.373-.263-.748-.33-1.07-.207-.321.124-.558.43-.651.873-.096.434-.052.986.161 1.541l-.006-.002zm4.182-3.679l-.489.62s-.041.043-.07.055a.171.171 0 01-.163-.024c-.078-.066-.088-.167-.022-.235l.664-.863c.057-.065.17-.08.235-.023a.196.196 0 01.065.109l1.598 4.124a.163.163 0 01-.095.214.169.169 0 01-.214-.096l-1.5-3.884-.009.003zm2.866 3.214l1.364-2.706c.161-.33.175-.69.052-1.01a1.232 1.232 0 00-.6-.656 1.217 1.217 0 00-1-.047 1.28 1.28 0 00-.671.597l-.139.284c-.039.087-.145.122-.219.079-.086-.038-.123-.145-.079-.219l.138-.287a1.65 1.65 0 01.85-.767 1.53 1.53 0 011.265.065c.371.183.631.486.764.832.152.395.147.857-.061 1.277l-1.167 2.32 2.127-.817a.161.161 0 01.214.095.168.168 0 01-.095.213l-2.504.971-.025.009c-.046.018-.097.023-.134 0-.086-.049-.123-.145-.084-.231l.004-.002zm8.832-7.938l-.7 1.643a1.616 1.616 0 011.79 1.02c.15.393.154.841-.032 1.252-.183.41-.516.715-.902.868a1.62 1.62 0 01-1.248-.032.166.166 0 01-.086-.226.166.166 0 01.225-.087 1.307 1.307 0 001.705-.658 1.29 1.29 0 00.022-.99 1.253 1.253 0 00-.68-.71 1.263 1.263 0 00-.985-.024.185.185 0 01-.153-.014l-.009.004a.167.167 0 01-.087-.23l.671-1.578-1.723.661a.165.165 0 01-.222-.092.172.172 0 01.096-.224l2.102-.807a.164.164 0 01.222.092c.01.026.011.054.007.08a.163.163 0 01-.014.062l.001-.01zm5.042 1.826l-2.436.936-.007.007-.012.004c-.033.013-.072.024-.108.004a.157.157 0 01-.105-.21l1.349-4.24.005-.012a.156.156 0 01.209-.103c.032.01.057.035.079.055a.034.034 0 00.018.022l.008.02 1.191 3.08.301-.115a.17.17 0 01.222.092.17.17 0 01-.1.215l-.3.115.296.772a.168.168 0 01-.313.12l-.296-.772-.001.01zm-.119-.308l-1.018-2.63-1.106 3.454 2.128-.816-.004-.008zm2.086.098a.162.162 0 01-.086-.226.175.175 0 01.229-.088c.326.138.675.138.984.02.308-.119.564-.35.711-.68.146-.329.142-.677.023-.986a1.288 1.288 0 00-.678-.72 1.28 1.28 0 00-.984-.02c-.313.12-.572.354-.719.683-.039.087-.142.13-.226.086a.088.088 0 01-.056-.035l-.004-.008s-.012-.01-.016-.018c-.013-.01-.021-.03-.027-.046-.004-.01-.005-.023-.009-.036l-.484-1.896a.15.15 0 01.018-.141.155.155 0 01.09-.077l2.093-.804a.164.164 0 01.222.092.167.167 0 01-.096.223l-1.96.753.357 1.404a1.62 1.62 0 01.684-.501c.391-.152.828-.16 1.245.029.419.179.708.508.862.908.146.384.163.837-.028 1.25a1.663 1.663 0 01-.909.862c-.392.15-.84.154-1.25-.028h.014zm3.092-4.722c.1-.665.459-1.272 1.197-1.584.08-.04.178.004.218.084a.177.177 0 01-.09.226c-.618.27-.892.744-.996 1.32-.054.322-.032.677.029 1.023a1.59 1.59 0 112.062 2.032 1.592 1.592 0 01-2.038-.86 2.457 2.457 0 01-.126-.29c-.225-.6-.356-1.3-.251-1.952l-.005.001zm.686 2.096c.013.034.031.056.044.08.008.02.013.033.009.048a1.262 1.262 0 002.284-1.058 1.262 1.262 0 00-1.633-.714 1.26 1.26 0 00-.719 1.62l.01.026.005-.002z" fill="#F8F8F8"/><path d="M128.036 112.686l-39.183 15.158.745 1.925 39.182-15.159-.744-1.924z" fill="url(#paint11_linear_69_5827)"/><path d="M118.249 121.391l-27.74 10.732.744 1.925 27.74-10.732-.744-1.925z" fill="url(#paint12_linear_69_5827)"/><path d="M128.828 75.353l-17.614 6.814a1.033 1.033 0 10.745 1.925l17.614-6.814a1.032 1.032 0 00-.745-1.925z" fill="#3B3B3B"/><path d="M161.106 124.535l-91.805 17.846 7.144 36.754 91.806-17.845-7.145-36.755z" fill="url(#paint13_linear_69_5827)"/><path opacity=".2" d="M161.106 124.535l-91.805 17.846 7.144 36.754 91.806-17.845-7.145-36.755z" fill="#000"/><path d="M169.586 183.287l-90.45 4.577a9.057 9.057 0 01-9.35-7.318l-13.02-66.984c-.307-1.58 1.317-2.837 2.77-2.142a10.533 10.533 0 005.427.989l81.253-6.95a9.057 9.057 0 019.664 7.296l13.709 70.527-.003.005z" fill="url(#paint14_linear_69_5827)"/><path d="M150.374 150.298c2.105-.409 3.434-2.685 2.968-5.082-.466-2.398-2.55-4.01-4.655-3.602-2.105.409-3.434 2.685-2.968 5.083.467 2.398 2.551 4.01 4.655 3.601z" fill="#EBEBEB"/><path d="M151.303 145.613c.216 1.114-.402 2.172-1.38 2.361-.978.19-1.947-.559-2.164-1.673-.216-1.113.401-2.171 1.38-2.361.978-.191 1.947.559 2.164 1.673z" fill="#DBDBDB"/></g><defs><linearGradient id="paint0_linear_69_5827" x1="49.894" y1="20.834" x2="208.897" y2="53.933" gradientUnits="userSpaceOnUse"><stop stop-color="#A259FF"/><stop offset="1" stop-color="#3B3B3B"/></linearGradient><linearGradient id="paint1_linear_69_5827" x1="73.551" y1="48.912" x2="220.705" y2="77.292" gradientUnits="userSpaceOnUse"><stop stop-color="#A259FF" stop-opacity="0"/><stop offset="1" stop-color="#FF6250"/></linearGradient><linearGradient id="paint2_linear_69_5827" x1="204.429" y1="198.49" x2="217.771" y2="208.969" gradientUnits="userSpaceOnUse"><stop stop-color="#A259FF"/><stop offset="1" stop-color="#377DF7"/></linearGradient><linearGradient id="paint3_linear_69_5827" x1="52.895" y1="213.338" x2="52.449" y2="226.614" gradientUnits="userSpaceOnUse"><stop stop-color="#A259FF"/><stop offset="1" stop-color="#377DF7"/></linearGradient><linearGradient id="paint4_linear_69_5827" x1="209.355" y1="60.922" x2="222.616" y2="60.162" gradientUnits="userSpaceOnUse"><stop stop-color="#A259FF"/><stop offset="1" stop-color="#377DF7"/></linearGradient><linearGradient id="paint5_linear_69_5827" x1="159.014" y1="121.437" x2="191.714" y2="127.091" gradientUnits="userSpaceOnUse"><stop stop-color="#A259FF"/><stop offset="1" stop-color="#3B3B3B"/></linearGradient><linearGradient id="paint6_linear_69_5827" x1="137.498" y1="203.71" x2="102.173" y2="134.339" gradientUnits="userSpaceOnUse"><stop stop-color="#A259FF"/><stop offset="1" stop-color="#3B3B3B"/></linearGradient><linearGradient id="paint7_linear_69_5827" x1="79.724" y1="85.054" x2="164.798" y2="77.706" gradientUnits="userSpaceOnUse"><stop stop-color="#A259FF"/><stop offset="1" stop-color="#FF6250"/></linearGradient><linearGradient id="paint8_linear_69_5827" x1="145.173" y1="105.54" x2="154.102" y2="103.952" gradientUnits="userSpaceOnUse"><stop stop-color="#A259FF"/><stop offset="1" stop-color="#FF6250"/></linearGradient><linearGradient id="paint9_linear_69_5827" x1="150.46" y1="103.49" x2="159.389" y2="101.903" gradientUnits="userSpaceOnUse"><stop stop-color="#A259FF"/><stop offset="1" stop-color="#3B3B3B"/></linearGradient><linearGradient id="paint10_linear_69_5827" x1="78.904" y1="94.671" x2="94.873" y2="93.117" gradientUnits="userSpaceOnUse"><stop stop-color="#A259FF"/><stop offset="1" stop-color="#3B3B3B"/></linearGradient><linearGradient id="paint11_linear_69_5827" x1="95.197" y1="125.389" x2="101.23" y2="133.865" gradientUnits="userSpaceOnUse"><stop stop-color="#A259FF"/><stop offset="1" stop-color="#FF6250"/></linearGradient><linearGradient id="paint12_linear_69_5827" x1="95" y1="130.385" x2="101.619" y2="138.016" gradientUnits="userSpaceOnUse"><stop stop-color="#A259FF"/><stop offset="1" stop-color="#FF6250"/></linearGradient><linearGradient id="paint13_linear_69_5827" x1="84.165" y1="139.492" x2="165.898" y2="160.966" gradientUnits="userSpaceOnUse"><stop stop-color="#A259FF"/><stop offset="1" stop-color="#3B3B3B"/></linearGradient><linearGradient id="paint14_linear_69_5827" x1="145.194" y1="160.976" x2="3.606" y2="93.023" gradientUnits="userSpaceOnUse"><stop stop-color="#A259FF"/><stop offset=".667" stop-color="#fff"/></linearGradient><clipPath id="clip0_69_5827"><path fill="#fff" d="M0 0h250v250H0z"/></clipPath><filter id="filter0_f_69_5827" x="-5.087" y="-5.088" width="260.174" height="260.174" filterUnits="userSpaceOnUse" color-interpolation-filters="sRGB"><feFlood flood-opacity="0" result="BackgroundImageFix"/><feBlend in="SourceGraphic" in2="BackgroundImageFix" result="shape"/><feGaussianBlur stdDeviation="27" result="effect1_foregroundBlur_69_5827"/></filter></defs></svg>