<svg width="250" height="250" fill="none" xmlns="http://www.w3.org/2000/svg"><g clip-path="url(#clip0_69_5875)"><path d="M125 229.167c57.53 0 104.166-46.636 104.166-104.166 0-57.53-46.636-104.167-104.166-104.167-57.53 0-104.167 46.637-104.167 104.167S67.47 229.167 125 229.167z" fill="url(#paint0_linear_69_5875)"/><g filter="url(#filter0_f_69_5875)"><path d="M125 201.086c42.022 0 76.087-34.065 76.087-76.087 0-42.022-34.065-76.087-76.087-76.087-42.022 0-76.087 34.065-76.087 76.087 0 42.022 34.065 76.087 76.087 76.087z" fill="url(#paint1_linear_69_5875)"/></g><path fill-rule="evenodd" clip-rule="evenodd" d="M75.268 46.72a3.156 3.156 0 100-6.31 3.156 3.156 0 000 6.31zm0 2.367a5.522 5.522 0 100-11.044 5.522 5.522 0 000 11.044zM46.283 179.873a3.156 3.156 0 100-6.312 3.156 3.156 0 000 6.312zm0 2.367a5.523 5.523 0 10-.001-11.045 5.523 5.523 0 000 11.045zm158.514-91.135a3.156 3.156 0 100-6.311 3.156 3.156 0 000 6.311zm0 2.367a5.523 5.523 0 100-11.046 5.523 5.523 0 000 11.046z" fill="#fff"/><path d="M39.303 47.272c.232-.962 1.6-.962 1.832 0l.781 3.236a.943.943 0 00.695.695l3.236.781c.962.232.962 1.6 0 1.832l-3.236.78a.942.942 0 00-.695.696l-.78 3.236c-.233.961-1.6.961-1.833 0l-.78-3.236a.942.942 0 00-.696-.695l-3.236-.781c-.961-.232-.961-1.6 0-1.832l3.236-.781a.942.942 0 00.695-.695l.781-3.236z" fill="#fff"/><path d="M207.694 46.732c.254-1.054 1.753-1.054 2.007 0l.857 3.547c.091.377.385.67.761.762l3.547.856c1.055.254 1.055 1.753 0 2.008l-3.547.856c-.376.09-.67.385-.761.762l-.857 3.547c-.254 1.054-1.753 1.054-2.007 0l-.857-3.547a1.031 1.031 0 00-.762-.762l-3.547-.856c-1.053-.255-1.053-1.754 0-2.008l3.547-.856c.377-.091.672-.385.762-.762l.857-3.547z" fill="url(#paint2_linear_69_5875)"/><path d="M49.847 200.396a1.577 1.577 0 011.723 2.12l-2.925 7.659a1.577 1.577 0 01-2.698.432l-5.17-6.363a1.577 1.577 0 01.975-2.552l8.095-1.296z" fill="url(#paint3_linear_69_5875)"/><path d="M193.82 179.355a1.578 1.578 0 011.956-1.91l7.893 2.218c1.168.329 1.544 1.8.675 2.648l-5.867 5.727a1.579 1.579 0 01-2.632-.74l-2.025-7.943z" fill="url(#paint4_linear_69_5875)"/><path d="M165.316 139.369L94.984 113.77c-5.392-1.962-11.353.818-13.315 6.209l-16.603 45.616c-1.962 5.391.817 11.352 6.209 13.314l70.333 25.6c5.391 1.962 11.352-.818 13.314-6.209l16.603-45.616c1.962-5.392-.818-11.353-6.209-13.315z" fill="url(#paint5_linear_69_5875)"/><path d="M162.461 153.499l20.776-29.927c3.272-4.713 2.104-11.186-2.608-14.457l-29.927-20.777c-4.713-3.272-11.186-2.103-14.458 2.61l-20.776 29.926c-3.272 4.713-2.104 11.185 2.609 14.457l29.926 20.776c4.713 3.272 11.186 2.104 14.458-2.608z" fill="url(#paint6_linear_69_5875)"/><path d="M138.808 129.682a3.908 3.908 0 01-5.465.868 3.909 3.909 0 01-.867-5.465 3.908 3.908 0 015.465-.868 3.908 3.908 0 01.867 5.465z" fill="url(#paint7_linear_69_5875)"/><path d="M150.369 113.728l-2.417-1.753-11.545 15.919 2.418 1.754 11.544-15.92z" fill="url(#paint8_linear_69_5875)"/><path d="M152.393 132.506a3.906 3.906 0 01-5.464.868 3.907 3.907 0 01-.868-5.465 3.908 3.908 0 015.465-.868 3.908 3.908 0 01.867 5.465z" fill="url(#paint9_linear_69_5875)"/><path d="M163.978 116.544l-2.418-1.753-11.542 15.921 2.418 1.753 11.542-15.921z" fill="url(#paint10_linear_69_5875)"/><path d="M163.947 116.584l-17.531-2.482 1.54-2.131 17.528 2.49-1.537 2.123z" fill="url(#paint11_linear_69_5875)"/><path d="M161.037 120.596l-17.532-2.482 1.54-2.132 17.536 2.493-1.544 2.121z" fill="url(#paint12_linear_69_5875)"/><path d="M147.076 87.256l-6.084-28.188c-1.21-5.608-6.739-9.173-12.346-7.963l-36.86 7.956c-5.609 1.21-9.174 6.738-7.963 12.346l6.084 28.189c1.21 5.607 6.738 9.172 12.346 7.962l36.86-7.956c5.609-1.21 9.173-6.737 7.963-12.346z" fill="url(#paint13_linear_69_5875)"/><path d="M146.596 84.357l-20.663-16.59-7.988 15.749-8.415-4.851L97.896 94.86l-8.726 1.88.415 1.953c1.403 6.483 7.791 10.607 14.274 9.204l33.938-7.324c6.482-1.402 10.607-7.79 9.203-14.273l-.414-1.943h.01z" fill="url(#paint14_linear_69_5875)"/><path opacity=".9" d="M97.688 76.785a4.506 4.506 0 004.062-6.295 4.498 4.498 0 00-4.208-2.712 4.507 4.507 0 00-4.061 6.296 4.497 4.497 0 004.207 2.711z" fill="#fff"/><path d="M153.834 196.629c-1.438 6.044-7.823 9.483-13.66 7.358l-70.202-25.552a10.387 10.387 0 01-6.553-12.165l9.97-41.906c1.437-6.044 7.822-9.483 13.659-7.358l70.202 25.552a10.388 10.388 0 016.553 12.165l-9.969 41.906z" fill="url(#paint15_linear_69_5875)"/></g><defs><linearGradient id="paint0_linear_69_5875" x1="49.894" y1="20.834" x2="208.897" y2="53.933" gradientUnits="userSpaceOnUse"><stop stop-color="#A259FF"/><stop offset="1" stop-color="#3B3B3B"/></linearGradient><linearGradient id="paint1_linear_69_5875" x1="212.862" y1="137.68" x2="156.245" y2="235.274" gradientUnits="userSpaceOnUse"><stop stop-color="#A259FF" stop-opacity="0"/><stop offset="1" stop-color="#FF6250"/></linearGradient><linearGradient id="paint2_linear_69_5875" x1="211.673" y1="49.035" x2="225.016" y2="59.514" gradientUnits="userSpaceOnUse"><stop stop-color="#A259FF"/><stop offset="1" stop-color="#377DF7"/></linearGradient><linearGradient id="paint3_linear_69_5875" x1="51.084" y1="204.28" x2="50.638" y2="217.555" gradientUnits="userSpaceOnUse"><stop stop-color="#A259FF"/><stop offset="1" stop-color="#377DF7"/></linearGradient><linearGradient id="paint4_linear_69_5875" x1="197.576" y1="177.77" x2="210.837" y2="177.009" gradientUnits="userSpaceOnUse"><stop stop-color="#A259FF"/><stop offset="1" stop-color="#377DF7"/></linearGradient><linearGradient id="paint5_linear_69_5875" x1="144.092" y1="148.037" x2="182.892" y2="240.768" gradientUnits="userSpaceOnUse"><stop stop-color="#A259FF"/><stop offset=".417" stop-color="#A259FF" stop-opacity="0"/></linearGradient><linearGradient id="paint6_linear_69_5875" x1="155.431" y1="141.332" x2="88.777" y2="161.815" gradientUnits="userSpaceOnUse"><stop stop-color="#FF7262"/><stop offset=".318" stop-color="#A259FF"/></linearGradient><linearGradient id="paint7_linear_69_5875" x1="144.953" y1="111.553" x2="152.341" y2="127.114" gradientUnits="userSpaceOnUse"><stop stop-color="#3B3B3B"/><stop offset="1" stop-color="#A259FF"/></linearGradient><linearGradient id="paint8_linear_69_5875" x1="171.05" y1="84.834" x2="177.564" y2="91.228" gradientUnits="userSpaceOnUse"><stop stop-color="#3B3B3B"/><stop offset="1" stop-color="#A259FF"/></linearGradient><linearGradient id="paint9_linear_69_5875" x1="158.538" y1="114.378" x2="165.925" y2="129.938" gradientUnits="userSpaceOnUse"><stop stop-color="#3B3B3B"/><stop offset="1" stop-color="#A259FF"/></linearGradient><linearGradient id="paint10_linear_69_5875" x1="184.654" y1="87.646" x2="191.169" y2="94.039" gradientUnits="userSpaceOnUse"><stop stop-color="#3B3B3B"/><stop offset="1" stop-color="#A259FF"/></linearGradient><linearGradient id="paint11_linear_69_5875" x1="168.053" y1="103.502" x2="167.786" y2="121.807" gradientUnits="userSpaceOnUse"><stop stop-color="#3B3B3B"/><stop offset="1" stop-color="#A259FF"/></linearGradient><linearGradient id="paint12_linear_69_5875" x1="165.149" y1="107.517" x2="164.881" y2="125.821" gradientUnits="userSpaceOnUse"><stop stop-color="#3B3B3B"/><stop offset="1" stop-color="#A259FF"/></linearGradient><linearGradient id="paint13_linear_69_5875" x1="123.704" y1="58.782" x2="135.466" y2="97.229" gradientUnits="userSpaceOnUse"><stop stop-color="#FF7262"/><stop offset="1" stop-color="#A259FF"/></linearGradient><linearGradient id="paint14_linear_69_5875" x1="115.393" y1="123.188" x2="102.615" y2="75.992" gradientUnits="userSpaceOnUse"><stop stop-color="#A259FF"/><stop offset="1" stop-color="#fff"/></linearGradient><linearGradient id="paint15_linear_69_5875" x1="137.015" y1="183.7" x2="88.155" y2="59.385" gradientUnits="userSpaceOnUse"><stop stop-color="#A259FF"/><stop offset=".667" stop-color="#fff"/></linearGradient><clipPath id="clip0_69_5875"><path fill="#fff" d="M0 0h250v250H0z"/></clipPath><filter id="filter0_f_69_5875" x="-5.087" y="-5.088" width="260.175" height="260.174" filterUnits="userSpaceOnUse" color-interpolation-filters="sRGB"><feFlood flood-opacity="0" result="BackgroundImageFix"/><feBlend in="SourceGraphic" in2="BackgroundImageFix" result="shape"/><feGaussianBlur stdDeviation="27" result="effect1_foregroundBlur_69_5875"/></filter></defs></svg>