<svg width="20" height="20" fill="none" xmlns="http://www.w3.org/2000/svg"><path fill-rule="evenodd" clip-rule="evenodd" d="M6.17 12.45a.625.625 0 01-.393.791c-1.06.356-1.622 1.246-1.923 2.15a6.09 6.09 0 00-.236.99c.286-.043.632-.115.991-.235.905-.3 1.794-.864 2.15-1.923a.625.625 0 011.185.398c-.534 1.59-1.856 2.35-2.94 2.711a7.373 7.373 0 01-2.019.363h-.054l-.001-.625h-.625v-.017a3.195 3.195 0 01.006-.169 7.373 7.373 0 01.357-1.888c.36-1.084 1.122-2.405 2.71-2.94a.625.625 0 01.793.393zm-3.24 4.62h-.625c0 .346.28.625.625.625v-.625zM16.546 3.454c-.725-.105-2.51-.144-4.338 1.684L7.345 10 10 12.655l4.863-4.862c1.827-1.828 1.788-3.613 1.683-4.339zm.181-1.237c-.997-.144-3.221-.145-5.403 2.037L6.019 9.558a.625.625 0 000 .884l3.54 3.54a.626.626 0 00.883 0l5.305-5.305c2.182-2.182 2.18-4.406 2.036-5.404a1.234 1.234 0 00-1.056-1.056z" fill="#A259FF"/><path fill-rule="evenodd" clip-rule="evenodd" d="M14.422 8.492c.345 0 .625.28.625.625v5.056a1.25 1.25 0 01-.372.872l-2.522 2.53a1.25 1.25 0 01-2.11-.64l-.656-3.273a.625.625 0 111.226-.246l.656 3.275 2.528-2.536V9.117c0-.345.28-.625.625-.625zM5.826 4.953h5.056a.625.625 0 110 1.25H5.844l-.005.005-2.53 2.523 3.274.656a.625.625 0 01-.246 1.226l-3.272-.656a1.25 1.25 0 01-.64-2.11l2.53-2.522a1.25 1.25 0 01.871-.372z" fill="#A259FF"/></svg>