<?xml version="1.0" encoding="utf-8"?><svg viewBox="0 0 195 272" xmlns="http://www.w3.org/2000/svg" xmlns:xlink="http://www.w3.org/1999/xlink"><style>:root>svg{display:none}:root>svg:target{display:block}</style><svg fill="none" viewBox="0 0 94 94" id="Group_23" xmlns="http://www.w3.org/2000/svg"><circle cx="47" cy="47" r="47" fill="#84A2FF"/><path d="M78.414 48.414a2 2 0 0 0 0-2.828L65.686 32.858a2 2 0 1 0-2.828 2.828L74.172 47 62.858 58.314a2 2 0 1 0 2.828 2.828l12.728-12.728zM17 49h60v-4H17v4z" fill="#fff"/></svg><svg fill="none" viewBox="0 0 195 272" id="Vector" xmlns="http://www.w3.org/2000/svg"><path d="M221.463 155.384 272 130.826l-52.236-20.698 31.372-46.646-55.636 8.34 4.018-56.067-44.045 34.753L130.745 0l-20.709 52.361-46.518-31.51 8.19 55.606-56.1-3.862 34.928 44.021L0 141.174l52.236 20.698-31.527 46.646 55.636-8.186-3.863 56.068 44.045-34.908L141.1 272l20.709-52.207 46.673 31.355-8.191-55.605 56.1 4.016-34.928-44.175z" fill="#FF917A"/></svg></svg>