<svg width="295" height="147" fill="none" xmlns="http://www.w3.org/2000/svg"><g filter="url(#filter0_b_69_5431)"><rect width="295" height="147" rx="20" fill="#3B3B3B" fill-opacity=".5"/><path d="M35.472 38.912h-3.6L31.26 41h-1.08l2.544-8.4h1.896l2.544 8.4h-1.08l-.612-2.088zm-1.872-5.88l-1.452 4.944h3.048l-1.452-4.944H33.6zm9.04 2.016h.936V41h-.936v-1.08h-.144a2.44 2.44 0 01-.756.912c-.312.224-.708.336-1.188.336-.328 0-.632-.056-.912-.168a1.857 1.857 0 01-.708-.48 2.374 2.374 0 01-.456-.804 3.615 3.615 0 01-.156-1.116v-3.552h.936v3.432c0 .624.128 1.08.384 1.368.256.288.648.432 1.176.432.568 0 1.012-.192 1.332-.576.328-.392.492-.912.492-1.56v-3.096zm8.667 3.84a2.972 2.972 0 01-.336.912c-.152.28-.348.524-.588.732-.24.2-.52.356-.84.468-.32.112-.676.168-1.068.168-.416 0-.812-.068-1.188-.204a2.93 2.93 0 01-.972-.588 2.963 2.963 0 01-.672-.96 3.285 3.285 0 01-.24-1.296v-.144c0-.48.08-.912.24-1.296.168-.384.392-.708.672-.972a2.99 2.99 0 01.972-.612 3.293 3.293 0 011.188-.216c.376 0 .724.056 1.044.168.32.112.6.272.84.48.248.2.448.44.6.72.16.28.268.584.324.912l-.936.216a1.792 1.792 0 00-.18-.6 1.497 1.497 0 00-.372-.516 1.626 1.626 0 00-.564-.36 2.124 2.124 0 00-.78-.132c-.288 0-.56.056-.816.168a1.956 1.956 0 00-.66.456 2.104 2.104 0 00-.456.696 2.466 2.466 0 00-.156.888v.144c0 .336.052.64.156.912a1.999 1.999 0 001.128 1.104c.256.096.532.144.828.144.296 0 .552-.044.768-.132.224-.096.412-.216.564-.36.16-.152.284-.324.372-.516.096-.192.16-.392.192-.6l.936.216zm1.576-3.84h1.872V32.6h.936v2.448h2.304v.864h-2.304v3.864c0 .24.108.36.324.36h1.692V41h-2.028a.91.91 0 01-.672-.264.934.934 0 01-.252-.672v-4.152h-1.872v-.864zm9.4-1.776a.8.8 0 01.24-.588.82.82 0 01.6-.252.78.78 0 01.588.252.78.78 0 01.252.588.82.82 0 01-.252.6.8.8 0 01-.588.24.84.84 0 01-.6-.24.84.84 0 01-.24-.6zm-1.704 6.864h2.088v-4.224h-1.872v-.864h2.808v5.088h1.944V41h-4.968v-.864zm12.82-2.04c0 .496-.085.936-.253 1.32-.16.376-.376.696-.648.96a2.799 2.799 0 01-.96.588c-.36.136-.736.204-1.128.204-.4 0-.78-.068-1.14-.204a2.824 2.824 0 01-.948-.588 3.06 3.06 0 01-.66-.96 3.408 3.408 0 01-.24-1.32v-.144c0-.488.08-.92.24-1.296.168-.384.388-.708.66-.972.28-.264.6-.464.96-.6.36-.136.736-.204 1.128-.204.392 0 .768.068 1.128.204.36.136.676.336.948.6.28.264.5.588.66.972.168.376.252.808.252 1.296v.144zM70.41 40.28c.288 0 .552-.048.792-.144.248-.104.464-.252.648-.444s.328-.42.432-.684c.104-.272.156-.576.156-.912v-.144c0-.32-.052-.612-.156-.876a2.05 2.05 0 00-.432-.696c-.184-.192-.4-.34-.648-.444a1.902 1.902 0 00-.792-.168c-.28 0-.544.056-.792.168a1.911 1.911 0 00-.648.444 2.05 2.05 0 00-.432.696 2.37 2.37 0 00-.156.876v.144c0 .336.052.64.156.912.104.264.248.492.432.684.184.192.396.34.636.444.248.096.516.144.804.144zm5.656.72h-.936v-5.952h.936v1.008h.144c.368-.784 1.008-1.176 1.92-1.176.688 0 1.236.216 1.644.648.408.424.612 1.064.612 1.92V41h-.936v-3.36c0-.624-.14-1.092-.42-1.404-.28-.312-.66-.468-1.14-.468-.568 0-1.016.196-1.344.588-.32.384-.48.9-.48 1.548V41zm14.443-2.688c.024.592.208 1.068.552 1.428.344.36.824.54 1.44.54.28 0 .524-.032.732-.096.208-.064.384-.152.528-.264.152-.112.272-.24.36-.384.096-.152.172-.312.228-.48l.888.24a2.647 2.647 0 01-.936 1.356c-.448.344-1.056.516-1.824.516-.424 0-.816-.072-1.176-.216a2.716 2.716 0 01-.912-.636 2.928 2.928 0 01-.6-.972 3.464 3.464 0 01-.216-1.248v-.288c0-.416.072-.804.216-1.164.152-.36.36-.668.624-.924a2.962 2.962 0 012.088-.84c.488 0 .908.092 1.26.276.36.176.652.396.876.66.232.264.4.552.504.864.112.312.168.6.168.864v.768h-4.8zm1.992-2.544a2.08 2.08 0 00-.744.132c-.224.08-.424.196-.6.348a2 2 0 00-.42.54c-.104.2-.172.42-.204.66h3.84a1.669 1.669 0 00-.192-.696 1.595 1.595 0 00-.42-.528 1.85 1.85 0 00-.588-.336 1.92 1.92 0 00-.672-.12zM98.11 41h-.936v-5.952h.936v1.008h.144c.368-.784 1.008-1.176 1.92-1.176.688 0 1.236.216 1.644.648.408.424.612 1.064.612 1.92V41h-.936v-3.36c0-.624-.14-1.092-.42-1.404-.28-.312-.66-.468-1.14-.468-.568 0-1.016.196-1.344.588-.32.384-.48.9-.48 1.548V41zm11.02-.912h-.144c-.096.184-.22.344-.372.48a1.995 1.995 0 01-.48.336 2.065 2.065 0 01-.54.192 2.275 2.275 0 01-.552.072c-.4 0-.772-.068-1.116-.204a2.749 2.749 0 01-.912-.588 2.81 2.81 0 01-.612-.948 3.707 3.707 0 01-.216-1.308v-.192c0-.48.076-.908.228-1.284.152-.384.356-.704.612-.96a2.54 2.54 0 01.9-.6 2.943 2.943 0 011.092-.204c.408 0 .788.092 1.14.276.36.176.636.452.828.828h.144V32.6h.936V41h-.936v-.912zm-1.992.192c.28 0 .54-.052.78-.156.24-.104.448-.252.624-.444.184-.192.328-.42.432-.684.104-.272.156-.572.156-.9v-.144c0-.32-.052-.612-.156-.876a2.05 2.05 0 00-.432-.696 1.79 1.79 0 00-.636-.444 1.794 1.794 0 00-.768-.168c-.28 0-.544.052-.792.156-.24.104-.452.252-.636.444-.176.192-.316.42-.42.684a2.547 2.547 0 00-.144.876v.192c0 .336.048.636.144.9.104.264.244.492.42.684.184.184.396.328.636.432.24.096.504.144.792.144zm5.967-3.696c0 .288.12.508.36.66.248.152.696.252 1.344.3.696.056 1.224.224 1.584.504.368.272.552.672.552 1.2v.072a1.672 1.672 0 01-.66 1.356c-.2.16-.448.28-.744.36a3.233 3.233 0 01-.948.132c-.464 0-.864-.06-1.2-.18a2.705 2.705 0 01-.828-.492 2.17 2.17 0 01-.492-.696 2.39 2.39 0 01-.192-.792l.888-.216c.04.456.216.824.528 1.104.312.272.728.408 1.248.408.44 0 .792-.084 1.056-.252a.827.827 0 00.408-.732c0-.336-.132-.576-.396-.72-.264-.144-.692-.236-1.284-.276-.688-.048-1.216-.208-1.584-.48-.368-.272-.552-.668-.552-1.188v-.072c0-.28.06-.524.18-.732.12-.216.28-.396.48-.54.208-.144.44-.252.696-.324.256-.072.524-.108.804-.108.392 0 .736.056 1.032.168.296.104.544.244.744.42.2.168.352.364.456.588.112.224.184.448.216.672l-.888.216c-.04-.384-.196-.684-.468-.9-.264-.216-.612-.324-1.044-.324-.168 0-.332.02-.492.06a1.312 1.312 0 00-.408.156.866.866 0 00-.288.276.637.637 0 00-.108.372zm15.308-3.312a.8.8 0 01.24-.588.82.82 0 01.6-.252.78.78 0 01.588.252.78.78 0 01.252.588.82.82 0 01-.252.6.8.8 0 01-.588.24.84.84 0 01-.6-.24.84.84 0 01-.24-.6zm-1.704 6.864h2.088v-4.224h-1.872v-.864h2.808v5.088h1.944V41h-4.968v-.864zm8.139.864h-.936v-5.952h.936v1.008h.144c.368-.784 1.008-1.176 1.92-1.176.688 0 1.236.216 1.644.648.408.424.612 1.064.612 1.92V41h-.936v-3.36c0-.624-.14-1.092-.42-1.404-.28-.312-.66-.468-1.14-.468-.568 0-1.016.196-1.344.588-.32.384-.48.9-.48 1.548V41zm8.2-.672a.8.8 0 01.24-.588.82.82 0 01.6-.252.78.78 0 01.588.252.78.78 0 01.252.588.82.82 0 01-.252.6.8.8 0 01-.588.24.84.84 0 01-.6-.24.84.84 0 01-.24-.6zm0-4.608a.8.8 0 01.24-.588.82.82 0 01.6-.252.78.78 0 01.588.252.78.78 0 01.252.588.82.82 0 01-.252.6.8.8 0 01-.588.24.84.84 0 01-.6-.24.84.84 0 01-.24-.6zM32.508 78.144V63.4h17.784v4.788H37.524v7.22h.684c.355-.988 1.013-1.837 1.976-2.546.988-.735 2.305-1.102 3.952-1.102 1.241 0 2.356.215 3.344.646a7.19 7.19 0 012.508 1.786c.684.76 1.203 1.672 1.558 2.736.38 1.064.57 2.23.57 3.496v.228c0 1.343-.228 2.61-.684 3.8a9.004 9.004 0 01-1.938 3.154c-.836.887-1.875 1.596-3.116 2.128s-2.673.798-4.294.798c-1.621 0-3.053-.215-4.294-.646-1.241-.456-2.293-1.077-3.154-1.862a8.497 8.497 0 01-1.938-2.85c-.43-1.115-.646-2.318-.646-3.61v-.912h5.016v.456c0 1.343.405 2.457 1.216 3.344.836.861 2.052 1.292 3.648 1.292s2.85-.43 3.762-1.292c.937-.861 1.406-2.052 1.406-3.572 0-1.444-.342-2.52-1.026-3.23-.684-.735-1.583-1.102-2.698-1.102-.735 0-1.33.165-1.786.494-.456.304-.747.671-.874 1.102h-8.208zm28.398 4.332c0 .887.316 1.66.95 2.318.658.633 1.672.95 3.04.95s2.444-.393 3.23-1.178c.81-.81 1.216-1.862 1.216-3.154v-3.42h-.684a4.703 4.703 0 01-1.748 2.166c-.811.532-1.964.798-3.458.798a8.328 8.328 0 01-3.192-.608 8.123 8.123 0 01-2.546-1.786c-.71-.76-1.267-1.672-1.672-2.736-.406-1.064-.608-2.242-.608-3.534v-.456c0-1.267.228-2.445.684-3.534.456-1.115 1.089-2.065 1.9-2.85.836-.81 1.836-1.444 3.002-1.9 1.19-.456 2.508-.684 3.952-.684 1.317 0 2.546.215 3.686.646 1.165.43 2.166 1.039 3.002 1.824a8.146 8.146 0 011.976 2.774c.48 1.064.722 2.242.722 3.534v9.69c0 1.444-.241 2.736-.722 3.876-.482 1.14-1.14 2.103-1.976 2.888a8.836 8.836 0 01-2.964 1.824c-1.115.405-2.331.608-3.648.608-1.292 0-2.496-.177-3.61-.532-1.115-.38-2.09-.912-2.926-1.596a8 8 0 01-1.938-2.546c-.456-.988-.684-2.115-.684-3.382h5.016zm3.99-14.82c-1.292 0-2.356.393-3.192 1.178-.836.76-1.254 1.786-1.254 3.078 0 1.292.418 2.33 1.254 3.116.836.76 1.9 1.14 3.192 1.14 1.292 0 2.356-.38 3.192-1.14.836-.785 1.254-1.824 1.254-3.116s-.418-2.318-1.254-3.078c-.836-.785-1.9-1.178-3.192-1.178zM30.876 106.6h1.008v3.72h3.576v-3.72h1.008v8.4H35.46v-3.744h-3.576V115h-1.008v-8.4zm13.132 5.496c0 .496-.084.936-.252 1.32-.16.376-.376.696-.648.96a2.799 2.799 0 01-.96.588c-.36.136-.736.204-1.128.204-.4 0-.78-.068-1.14-.204a2.824 2.824 0 01-.948-.588 3.06 3.06 0 01-.66-.96 3.408 3.408 0 01-.24-1.32v-.144c0-.488.08-.92.24-1.296.168-.384.388-.708.66-.972.28-.264.6-.464.96-.6.36-.136.736-.204 1.128-.204.392 0 .768.068 1.128.204.36.136.676.336.948.6.28.264.5.588.66.972.168.376.252.808.252 1.296v.144zm-2.988 2.184c.288 0 .552-.048.792-.144.248-.104.464-.252.648-.444s.328-.42.432-.684c.104-.272.156-.576.156-.912v-.144c0-.32-.052-.612-.156-.876a2.05 2.05 0 00-.432-.696c-.184-.192-.4-.34-.648-.444a1.902 1.902 0 00-.792-.168c-.28 0-.544.056-.792.168a1.911 1.911 0 00-.648.444 2.05 2.05 0 00-.432.696 2.37 2.37 0 00-.156.876v.144c0 .336.052.64.156.912.104.264.248.492.432.684.184.192.396.34.636.444.248.096.516.144.804.144zm8.967-5.232h.936V115h-.936v-1.08h-.144a2.44 2.44 0 01-.756.912c-.312.224-.708.336-1.188.336-.328 0-.632-.056-.912-.168a1.857 1.857 0 01-.708-.48 2.374 2.374 0 01-.456-.804 3.615 3.615 0 01-.156-1.116v-3.552h.936v3.432c0 .624.128 1.08.384 1.368.256.288.648.432 1.176.432.568 0 1.012-.192 1.332-.576.328-.392.492-.912.492-1.56v-3.096zm2.764 0h2.16v.792h.144c.152-.328.368-.568.648-.72.28-.16.6-.24.96-.24.6 0 1.084.196 1.452.588.368.392.564.964.588 1.716l-.984.144c0-.552-.132-.948-.396-1.188a1.366 1.366 0 00-.972-.372c-.248 0-.464.048-.648.144a1.313 1.313 0 00-.444.396c-.12.168-.208.364-.264.588a2.961 2.961 0 00-.084.72v2.52h1.512V115h-3.816v-.864h1.368v-4.224h-1.224v-.864zm8.92 1.536c0 .288.12.508.36.66.248.152.696.252 1.344.3.696.056 1.224.224 1.584.504.368.272.552.672.552 1.2v.072a1.672 1.672 0 01-.66 1.356c-.2.16-.448.28-.744.36a3.233 3.233 0 01-.948.132c-.464 0-.864-.06-1.2-.18a2.705 2.705 0 01-.828-.492 2.17 2.17 0 01-.492-.696 2.39 2.39 0 01-.192-.792l.888-.216c.04.456.216.824.528 1.104.312.272.728.408 1.248.408.44 0 .792-.084 1.056-.252a.827.827 0 00.408-.732c0-.336-.132-.576-.396-.72-.264-.144-.692-.236-1.284-.276-.688-.048-1.216-.208-1.584-.48-.368-.272-.552-.668-.552-1.188v-.072c0-.28.06-.524.18-.732.12-.216.28-.396.48-.54.208-.144.44-.252.696-.324.256-.072.524-.108.804-.108.392 0 .736.056 1.032.168.296.104.544.244.744.42.2.168.352.364.456.588.112.224.184.448.216.672l-.888.216c-.04-.384-.196-.684-.468-.9-.264-.216-.612-.324-1.044-.324-.168 0-.332.02-.492.06a1.312 1.312 0 00-.408.156.866.866 0 00-.288.276.637.637 0 00-.108.372zm42.557-29.852c0 .373-.075.728-.224 1.064a2.55 2.55 0 01-.56.84 2.719 2.719 0 01-.868.532c-.317.15-.653.224-1.008.224-.373 0-.719-.075-1.036-.224a2.801 2.801 0 01-.84-.532 2.96 2.96 0 01-.588-.84 2.909 2.909 0 01-.196-1.064c0-.373.065-.719.196-1.036a2.52 2.52 0 01.588-.84 2.54 2.54 0 01.84-.56c.317-.15.663-.224 1.036-.224.355 0 .691.075 1.008.224.336.13.625.317.868.56.243.224.429.504.56.84.149.317.224.663.224 1.036zm0-9.352c0 .373-.075.728-.224 1.064a2.55 2.55 0 01-.56.84c-.243.224-.532.41-.868.56-.317.13-.653.196-1.008.196-.373 0-.719-.065-1.036-.196a3.305 3.305 0 01-.84-.56 2.96 2.96 0 01-.588-.84 2.909 2.909 0 01-.196-1.064c0-.373.065-.719.196-1.036a2.52 2.52 0 01.588-.84 2.54 2.54 0 01.84-.56c.317-.15.663-.224 1.036-.224.355 0 .691.075 1.008.224.336.13.625.317.868.56.243.224.429.504.56.84.149.317.224.663.224 1.036zm19.28 6.764V63.4h17.784v4.788h-12.768v7.22h.684c.355-.988 1.013-1.837 1.976-2.546.988-.735 2.305-1.102 3.952-1.102 1.241 0 2.356.215 3.344.646a7.19 7.19 0 012.508 1.786c.684.76 1.203 1.672 1.558 2.736.38 1.064.57 2.23.57 3.496v.228c0 1.343-.228 2.61-.684 3.8a9.013 9.013 0 01-1.938 3.154c-.836.887-1.875 1.596-3.116 2.128s-2.673.798-4.294.798c-1.621 0-3.053-.215-4.294-.646-1.241-.456-2.293-1.077-3.154-1.862a8.497 8.497 0 01-1.938-2.85c-.431-1.115-.646-2.318-.646-3.61v-.912h5.016v.456c0 1.343.405 2.457 1.216 3.344.836.861 2.052 1.292 3.648 1.292s2.85-.43 3.762-1.292c.937-.861 1.406-2.052 1.406-3.572 0-1.444-.342-2.52-1.026-3.23-.684-.735-1.583-1.102-2.698-1.102-.735 0-1.33.165-1.786.494-.456.304-.747.671-.874 1.102h-8.208zm28.398 4.332c0 .887.316 1.66.95 2.318.658.633 1.672.95 3.04.95s2.444-.393 3.23-1.178c.81-.81 1.216-1.862 1.216-3.154v-3.42h-.684a4.708 4.708 0 01-1.748 2.166c-.811.532-1.964.798-3.458.798a8.328 8.328 0 01-3.192-.608 8.113 8.113 0 01-2.546-1.786c-.71-.76-1.267-1.672-1.672-2.736-.406-1.064-.608-2.242-.608-3.534v-.456c0-1.267.228-2.445.684-3.534.456-1.115 1.089-2.065 1.9-2.85.836-.81 1.836-1.444 3.002-1.9 1.19-.456 2.508-.684 3.952-.684 1.317 0 2.546.215 3.686.646 1.165.43 2.166 1.039 3.002 1.824a8.154 8.154 0 011.976 2.774c.481 1.064.722 2.242.722 3.534v9.69c0 1.444-.241 2.736-.722 3.876-.482 1.14-1.14 2.103-1.976 2.888a8.836 8.836 0 01-2.964 1.824c-1.115.405-2.331.608-3.648.608-1.292 0-2.496-.177-3.61-.532-1.115-.38-2.09-.912-2.926-1.596a7.992 7.992 0 01-1.938-2.546c-.456-.988-.684-2.115-.684-3.382h5.016zm3.99-14.82c-1.292 0-2.356.393-3.192 1.178-.836.76-1.254 1.786-1.254 3.078 0 1.292.418 2.33 1.254 3.116.836.76 1.9 1.14 3.192 1.14 1.292 0 2.356-.38 3.192-1.14.836-.785 1.254-1.824 1.254-3.116s-.418-2.318-1.254-3.078c-.836-.785-1.9-1.178-3.192-1.178zM121.552 106.6h1.92l1.128 7.968h.144l1.128-7.968h1.92v8.4h-.936v-7.968h-.144L125.584 115h-1.824l-1.128-7.968h-.144V115h-.936v-8.4zm9.688.672a.8.8 0 01.24-.588.82.82 0 01.6-.252.78.78 0 01.588.252.78.78 0 01.252.588.82.82 0 01-.252.6.8.8 0 01-.588.24.84.84 0 01-.6-.24.84.84 0 01-.24-.6zm-1.704 6.864h2.088v-4.224h-1.872v-.864h2.808v5.088h1.944V115h-4.968v-.864zm8.139.864h-.936v-5.952h.936v1.008h.144c.368-.784 1.008-1.176 1.92-1.176.688 0 1.236.216 1.644.648.408.424.612 1.064.612 1.92V115h-.936v-3.36c0-.624-.14-1.092-.42-1.404-.28-.312-.66-.468-1.14-.468-.568 0-1.016.196-1.344.588-.32.384-.48.9-.48 1.548V115zm10.66-5.952h.936V115h-.936v-1.08h-.144a2.44 2.44 0 01-.756.912c-.312.224-.708.336-1.188.336-.328 0-.632-.056-.912-.168a1.857 1.857 0 01-.708-.48 2.374 2.374 0 01-.456-.804 3.615 3.615 0 01-.156-1.116v-3.552h.936v3.432c0 .624.128 1.08.384 1.368.256.288.648.432 1.176.432.568 0 1.012-.192 1.332-.576.328-.392.492-.912.492-1.56v-3.096zm2.896 0h1.872V106.6h.936v2.448h2.304v.864h-2.304v3.864c0 .24.108.36.324.36h1.692V115h-2.028a.91.91 0 01-.672-.264.934.934 0 01-.252-.672v-4.152h-1.872v-.864zm8.235 3.264c.024.592.208 1.068.552 1.428.344.36.824.54 1.44.54.28 0 .524-.032.732-.096.208-.064.384-.152.528-.264.152-.112.272-.24.36-.384.096-.152.172-.312.228-.48l.888.24a2.647 2.647 0 01-.936 1.356c-.448.344-1.056.516-1.824.516-.424 0-.816-.072-1.176-.216a2.716 2.716 0 01-.912-.636 2.928 2.928 0 01-.6-.972 3.464 3.464 0 01-.216-1.248v-.288c0-.416.072-.804.216-1.164.152-.36.36-.668.624-.924a2.962 2.962 0 012.088-.84c.488 0 .908.092 1.26.276.36.176.652.396.876.66.232.264.4.552.504.864.112.312.168.6.168.864v.768h-4.8zm1.992-2.544a2.08 2.08 0 00-.744.132c-.224.08-.424.196-.6.348a2 2 0 00-.42.54c-.104.2-.172.42-.204.66h3.84a1.669 1.669 0 00-.192-.696 1.595 1.595 0 00-.42-.528 1.85 1.85 0 00-.588-.336 1.92 1.92 0 00-.672-.12zm5.908.816c0 .288.12.508.36.66.248.152.696.252 1.344.3.696.056 1.224.224 1.584.504.368.272.552.672.552 1.2v.072a1.672 1.672 0 01-.66 1.356c-.2.16-.448.28-.744.36a3.233 3.233 0 01-.948.132c-.464 0-.864-.06-1.2-.18a2.705 2.705 0 01-.828-.492 2.17 2.17 0 01-.492-.696 2.39 2.39 0 01-.192-.792l.888-.216c.04.456.216.824.528 1.104.312.272.728.408 1.248.408.44 0 .792-.084 1.056-.252a.827.827 0 00.408-.732c0-.336-.132-.576-.396-.72-.264-.144-.692-.236-1.284-.276-.688-.048-1.216-.208-1.584-.48-.368-.272-.552-.668-.552-1.188v-.072c0-.28.06-.524.18-.732.12-.216.28-.396.48-.54.208-.144.44-.252.696-.324.256-.072.524-.108.804-.108.392 0 .736.056 1.032.168.296.104.544.244.744.42.2.168.352.364.456.588.112.224.184.448.216.672l-.888.216c-.04-.384-.196-.684-.468-.9-.264-.216-.612-.324-1.044-.324-.168 0-.332.02-.492.06a1.312 1.312 0 00-.408.156.866.866 0 00-.288.276.637.637 0 00-.108.372zm27.862-29.852c0 .373-.075.728-.224 1.064a2.55 2.55 0 01-.56.84 2.719 2.719 0 01-.868.532c-.317.15-.653.224-1.008.224-.373 0-.719-.075-1.036-.224a2.805 2.805 0 01-.84-.532 2.948 2.948 0 01-.588-.84 2.903 2.903 0 01-.196-1.064c0-.373.065-.719.196-1.036.149-.336.345-.616.588-.84a2.54 2.54 0 01.84-.56c.317-.15.663-.224 1.036-.224.355 0 .691.075 1.008.224.336.13.625.317.868.56.243.224.429.504.56.84.149.317.224.663.224 1.036zm0-9.352c0 .373-.075.728-.224 1.064a2.55 2.55 0 01-.56.84c-.243.224-.532.41-.868.56-.317.13-.653.196-1.008.196-.373 0-.719-.065-1.036-.196a3.31 3.31 0 01-.84-.56 2.948 2.948 0 01-.588-.84 2.903 2.903 0 01-.196-1.064c0-.373.065-.719.196-1.036.149-.336.345-.616.588-.84a2.54 2.54 0 01.84-.56c.317-.15.663-.224 1.036-.224.355 0 .691.075 1.008.224.336.13.625.317.868.56.243.224.429.504.56.84.149.317.224.663.224 1.036zm19.28 6.764V63.4h17.784v4.788h-12.768v7.22h.684c.355-.988 1.013-1.837 1.976-2.546.988-.735 2.305-1.102 3.952-1.102 1.241 0 2.356.215 3.344.646a7.19 7.19 0 012.508 1.786c.684.76 1.203 1.672 1.558 2.736.38 1.064.57 2.23.57 3.496v.228c0 1.343-.228 2.61-.684 3.8a9.013 9.013 0 01-1.938 3.154c-.836.887-1.875 1.596-3.116 2.128s-2.673.798-4.294.798c-1.621 0-3.053-.215-4.294-.646-1.241-.456-2.293-1.077-3.154-1.862a8.497 8.497 0 01-1.938-2.85c-.431-1.115-.646-2.318-.646-3.61v-.912h5.016v.456c0 1.343.405 2.457 1.216 3.344.836.861 2.052 1.292 3.648 1.292s2.85-.43 3.762-1.292c.937-.861 1.406-2.052 1.406-3.572 0-1.444-.342-2.52-1.026-3.23-.684-.735-1.583-1.102-2.698-1.102-.735 0-1.33.165-1.786.494-.456.304-.747.671-.874 1.102h-8.208zm28.398 4.332c0 .887.316 1.66.95 2.318.658.633 1.672.95 3.04.95s2.444-.393 3.23-1.178c.81-.81 1.216-1.862 1.216-3.154v-3.42h-.684a4.708 4.708 0 01-1.748 2.166c-.811.532-1.964.798-3.458.798a8.328 8.328 0 01-3.192-.608 8.113 8.113 0 01-2.546-1.786c-.71-.76-1.267-1.672-1.672-2.736-.406-1.064-.608-2.242-.608-3.534v-.456c0-1.267.228-2.445.684-3.534.456-1.115 1.089-2.065 1.9-2.85.836-.81 1.836-1.444 3.002-1.9 1.19-.456 2.508-.684 3.952-.684 1.317 0 2.546.215 3.686.646 1.165.43 2.166 1.039 3.002 1.824a8.154 8.154 0 011.976 2.774c.481 1.064.722 2.242.722 3.534v9.69c0 1.444-.241 2.736-.722 3.876-.482 1.14-1.14 2.103-1.976 2.888a8.836 8.836 0 01-2.964 1.824c-1.115.405-2.331.608-3.648.608-1.292 0-2.496-.177-3.61-.532-1.115-.38-2.09-.912-2.926-1.596a7.992 7.992 0 01-1.938-2.546c-.456-.988-.684-2.115-.684-3.382h5.016zm3.99-14.82c-1.292 0-2.356.393-3.192 1.178-.836.76-1.254 1.786-1.254 3.078 0 1.292.418 2.33 1.254 3.116.836.76 1.9 1.14 3.192 1.14 1.292 0 2.356-.38 3.192-1.14.836-.785 1.254-1.824 1.254-3.116s-.418-2.318-1.254-3.078c-.836-.785-1.9-1.178-3.192-1.178zm-29.244 41.368c0-.272-.056-.512-.168-.72a1.424 1.424 0 00-.432-.516 2.051 2.051 0 00-.636-.312 2.617 2.617 0 00-.756-.108c-.232 0-.452.032-.66.096-.208.056-.396.14-.564.252-.16.112-.288.252-.384.42-.096.16-.144.348-.144.564v.072c0 .232.048.432.144.6.096.16.236.3.42.42.192.112.428.208.708.288.28.072.608.136.984.192.88.136 1.528.396 1.944.78.416.376.624.884.624 1.524v.144c0 .36-.064.692-.192.996-.12.296-.304.552-.552.768-.24.216-.54.384-.9.504s-.776.18-1.248.18a4.146 4.146 0 01-1.428-.228 3.066 3.066 0 01-1.032-.648 2.894 2.894 0 01-.624-.972 3.394 3.394 0 01-.216-1.224v-.36h1.008v.288c0 .736.2 1.288.6 1.656.408.368.972.552 1.692.552.624 0 1.092-.136 1.404-.408.32-.28.48-.648.48-1.104v-.072c0-.44-.164-.776-.492-1.008-.32-.232-.844-.4-1.572-.504a6.458 6.458 0 01-1.152-.252 3.15 3.15 0 01-.864-.456 1.97 1.97 0 01-.552-.684 2.125 2.125 0 01-.192-.936v-.144c0-.328.068-.628.204-.9.136-.272.324-.508.564-.708.248-.2.54-.352.876-.456.344-.112.72-.168 1.128-.168.472 0 .892.068 1.26.204.376.136.692.32.948.552.256.224.448.492.576.804.136.304.204.624.204.96v.504h-1.008v-.432zm3.424 3.288c.024.592.208 1.068.552 1.428.344.36.824.54 1.44.54.28 0 .524-.032.732-.096.208-.064.384-.152.528-.264.152-.112.272-.24.36-.384.096-.152.172-.312.228-.48l.888.24a2.647 2.647 0 01-.936 1.356c-.448.344-1.056.516-1.824.516-.424 0-.816-.072-1.176-.216a2.716 2.716 0 01-.912-.636 2.928 2.928 0 01-.6-.972 3.464 3.464 0 01-.216-1.248v-.288c0-.416.072-.804.216-1.164.152-.36.36-.668.624-.924a2.962 2.962 0 012.088-.84c.488 0 .908.092 1.26.276.36.176.652.396.876.66.232.264.4.552.504.864.112.312.168.6.168.864v.768h-4.8zm1.992-2.544a2.08 2.08 0 00-.744.132c-.224.08-.424.196-.6.348a2 2 0 00-.42.54c-.104.2-.172.42-.204.66h3.84a1.669 1.669 0 00-.192-.696 1.595 1.595 0 00-.42-.528 1.85 1.85 0 00-.588-.336 1.92 1.92 0 00-.672-.12zm10.239 3.12a2.972 2.972 0 01-.336.912c-.152.28-.348.524-.588.732-.24.2-.52.356-.84.468-.32.112-.676.168-1.068.168-.416 0-.812-.068-1.188-.204a2.93 2.93 0 01-.972-.588 2.963 2.963 0 01-.672-.96 3.285 3.285 0 01-.24-1.296v-.144c0-.48.08-.912.24-1.296.168-.384.392-.708.672-.972a2.99 2.99 0 01.972-.612 3.293 3.293 0 011.188-.216c.376 0 .724.056 1.044.168.32.112.6.272.84.48.248.2.448.44.6.72.16.28.268.584.324.912l-.936.216a1.792 1.792 0 00-.18-.6 1.497 1.497 0 00-.372-.516 1.626 1.626 0 00-.564-.36 2.124 2.124 0 00-.78-.132c-.288 0-.56.056-.816.168a1.956 1.956 0 00-.66.456 2.104 2.104 0 00-.456.696 2.466 2.466 0 00-.156.888v.144c0 .336.052.64.156.912a1.999 1.999 0 001.128 1.104c.256.096.532.144.828.144.296 0 .552-.044.768-.132.224-.096.412-.216.564-.36.16-.152.284-.324.372-.516.096-.192.16-.392.192-.6l.936.216zm7.396-.792c0 .496-.084.936-.252 1.32-.16.376-.376.696-.648.96a2.799 2.799 0 01-.96.588c-.36.136-.736.204-1.128.204-.4 0-.78-.068-1.14-.204a2.824 2.824 0 01-.948-.588 3.06 3.06 0 01-.66-.96 3.408 3.408 0 01-.24-1.32v-.144c0-.488.08-.92.24-1.296.168-.384.388-.708.66-.972.28-.264.6-.464.96-.6.36-.136.736-.204 1.128-.204.392 0 .768.068 1.128.204.36.136.676.336.948.6.28.264.5.588.66.972.168.376.252.808.252 1.296v.144zm-2.988 2.184c.288 0 .552-.048.792-.144.248-.104.464-.252.648-.444s.328-.42.432-.684c.104-.272.156-.576.156-.912v-.144c0-.32-.052-.612-.156-.876a2.05 2.05 0 00-.432-.696c-.184-.192-.4-.34-.648-.444a1.902 1.902 0 00-.792-.168c-.28 0-.544.056-.792.168a1.911 1.911 0 00-.648.444 2.05 2.05 0 00-.432.696 2.37 2.37 0 00-.156.876v.144c0 .336.052.64.156.912.104.264.248.492.432.684.184.192.396.34.636.444.248.096.516.144.804.144zm5.656.72h-.936v-5.952h.936v1.008h.144c.368-.784 1.008-1.176 1.92-1.176.688 0 1.236.216 1.644.648.408.424.612 1.064.612 1.92V115h-.936v-3.36c0-.624-.14-1.092-.42-1.404-.28-.312-.66-.468-1.14-.468-.568 0-1.016.196-1.344.588-.32.384-.48.9-.48 1.548V115zm11.019-.912h-.144c-.096.184-.22.344-.372.48a1.995 1.995 0 01-.48.336 2.065 2.065 0 01-.54.192 2.275 2.275 0 01-.552.072c-.4 0-.772-.068-1.116-.204a2.749 2.749 0 01-.912-.588 2.81 2.81 0 01-.612-.948 3.707 3.707 0 01-.216-1.308v-.192c0-.48.076-.908.228-1.284.152-.384.356-.704.612-.96a2.54 2.54 0 01.9-.6 2.943 2.943 0 011.092-.204c.408 0 .788.092 1.14.276.36.176.636.452.828.828h.144V106.6h.936v8.4h-.936v-.912zm-1.992.192c.28 0 .54-.052.78-.156.24-.104.448-.252.624-.444.184-.192.328-.42.432-.684.104-.272.156-.572.156-.9v-.144c0-.32-.052-.612-.156-.876a2.05 2.05 0 00-.432-.696 1.79 1.79 0 00-.636-.444 1.794 1.794 0 00-.768-.168c-.28 0-.544.052-.792.156-.24.104-.452.252-.636.444-.176.192-.316.42-.42.684a2.547 2.547 0 00-.144.876v.192c0 .336.048.636.144.9.104.264.244.492.42.684.184.184.396.328.636.432.24.096.504.144.792.144zm5.968-3.696c0 .288.12.508.36.66.248.152.696.252 1.344.3.696.056 1.224.224 1.584.504.368.272.552.672.552 1.2v.072a1.672 1.672 0 01-.66 1.356c-.2.16-.448.28-.744.36a3.233 3.233 0 01-.948.132c-.464 0-.864-.06-1.2-.18a2.705 2.705 0 01-.828-.492 2.17 2.17 0 01-.492-.696 2.39 2.39 0 01-.192-.792l.888-.216c.04.456.216.824.528 1.104.312.272.728.408 1.248.408.44 0 .792-.084 1.056-.252a.827.827 0 00.408-.732c0-.336-.132-.576-.396-.72-.264-.144-.692-.236-1.284-.276-.688-.048-1.216-.208-1.584-.48-.368-.272-.552-.668-.552-1.188v-.072c0-.28.06-.524.18-.732.12-.216.28-.396.48-.54.208-.144.44-.252.696-.324.256-.072.524-.108.804-.108.392 0 .736.056 1.032.168.296.104.544.244.744.42.2.168.352.364.456.588.112.224.184.448.216.672l-.888.216c-.04-.384-.196-.684-.468-.9-.264-.216-.612-.324-1.044-.324-.168 0-.332.02-.492.06a1.312 1.312 0 00-.408.156.866.866 0 00-.288.276.637.637 0 00-.108.372z" fill="#fff"/></g><defs><filter id="filter0_b_69_5431" x="-10" y="-10" width="315" height="167" filterUnits="userSpaceOnUse" color-interpolation-filters="sRGB"><feFlood flood-opacity="0" result="BackgroundImageFix"/><feGaussianBlur in="BackgroundImageFix" stdDeviation="5"/><feComposite in2="SourceAlpha" operator="in" result="effect1_backgroundBlur_69_5431"/><feBlend in="SourceGraphic" in2="effect1_backgroundBlur_69_5431" result="shape"/></filter></defs></svg>